<svg id="my-svg" width="100%" xmlns="http://www.w3.org/2000/svg" xmlns:xlink="http://www.w3.org/1999/xlink" class="classDiagram" style="max-width: 1321.43px; background-color: transparent;" viewBox="0 0 1321.4296875 596" role="graphics-document document" aria-roledescription="class"><style>#my-svg{font-family:"trebuchet ms",verdana,arial,sans-serif;font-size:16px;fill:#333;}@keyframes edge-animation-frame{from{stroke-dashoffset:0;}}@keyframes dash{to{stroke-dashoffset:0;}}#my-svg .edge-animation-slow{stroke-dasharray:9,5!important;stroke-dashoffset:900;animation:dash 50s linear infinite;stroke-linecap:round;}#my-svg .edge-animation-fast{stroke-dasharray:9,5!important;stroke-dashoffset:900;animation:dash 20s linear infinite;stroke-linecap:round;}#my-svg .error-icon{fill:#552222;}#my-svg .error-text{fill:#552222;stroke:#552222;}#my-svg .edge-thickness-normal{stroke-width:1px;}#my-svg .edge-thickness-thick{stroke-width:3.5px;}#my-svg .edge-pattern-solid{stroke-dasharray:0;}#my-svg .edge-thickness-invisible{stroke-width:0;fill:none;}#my-svg .edge-pattern-dashed{stroke-dasharray:3;}#my-svg .edge-pattern-dotted{stroke-dasharray:2;}#my-svg .marker{fill:#333333;stroke:#333333;}#my-svg .marker.cross{stroke:#333333;}#my-svg svg{font-family:"trebuchet ms",verdana,arial,sans-serif;font-size:16px;}#my-svg p{margin:0;}#my-svg g.classGroup text{fill:#9370DB;stroke:none;font-family:"trebuchet ms",verdana,arial,sans-serif;font-size:10px;}#my-svg g.classGroup text .title{font-weight:bolder;}#my-svg .cluster-label text{fill:#333;}#my-svg .cluster-label span{color:#333;}#my-svg .cluster-label span p{background-color:transparent;}#my-svg .cluster rect{fill:#ffffde;stroke:#aaaa33;stroke-width:1px;}#my-svg .cluster text{fill:#333;}#my-svg .cluster span{color:#333;}#my-svg .nodeLabel,#my-svg .edgeLabel{color:#131300;}#my-svg .noteLabel .nodeLabel,#my-svg .noteLabel .edgeLabel{color:black;}#my-svg .edgeLabel .label rect{fill:#ECECFF;}#my-svg .label text{fill:#131300;}#my-svg .labelBkg{background:#ECECFF;}#my-svg .edgeLabel .label span{background:#ECECFF;}#my-svg .classTitle{font-weight:bolder;}#my-svg .node rect,#my-svg .node circle,#my-svg .node ellipse,#my-svg .node polygon,#my-svg .node path{fill:#ECECFF;stroke:#9370DB;stroke-width:1;}#my-svg .divider{stroke:#9370DB;stroke-width:1;}#my-svg g.clickable{cursor:pointer;}#my-svg g.classGroup rect{fill:#ECECFF;stroke:#9370DB;}#my-svg g.classGroup line{stroke:#9370DB;stroke-width:1;}#my-svg .classLabel .box{stroke:none;stroke-width:0;fill:#ECECFF;opacity:0.5;}#my-svg .classLabel .label{fill:#9370DB;font-size:10px;}#my-svg .relation{stroke:#333333;stroke-width:1;fill:none;}#my-svg .dashed-line{stroke-dasharray:3;}#my-svg .dotted-line{stroke-dasharray:1 2;}#my-svg [id$="-compositionStart"],#my-svg .composition{fill:#333333!important;stroke:#333333!important;stroke-width:1;}#my-svg [id$="-compositionEnd"],#my-svg .composition{fill:#333333!important;stroke:#333333!important;stroke-width:1;}#my-svg [id$="-dependencyStart"],#my-svg .dependency{fill:#333333!important;stroke:#333333!important;stroke-width:1;}#my-svg [id$="-dependencyEnd"],#my-svg .dependency{fill:#333333!important;stroke:#333333!important;stroke-width:1;}#my-svg [id$="-extensionStart"],#my-svg .extension{fill:transparent!important;stroke:#333333!important;stroke-width:1;}#my-svg [id$="-extensionEnd"],#my-svg .extension{fill:transparent!important;stroke:#333333!important;stroke-width:1;}#my-svg [id$="-aggregationStart"],#my-svg .aggregation{fill:transparent!important;stroke:#333333!important;stroke-width:1;}#my-svg [id$="-aggregationEnd"],#my-svg .aggregation{fill:transparent!important;stroke:#333333!important;stroke-width:1;}#my-svg [id$="-lollipopStart"],#my-svg .lollipop{fill:#ECECFF!important;stroke:#333333!important;stroke-width:1;}#my-svg [id$="-lollipopEnd"],#my-svg .lollipop{fill:#ECECFF!important;stroke:#333333!important;stroke-width:1;}#my-svg .edgeTerminals{font-size:11px;line-height:initial;}#my-svg .classTitleText{text-anchor:middle;font-size:18px;fill:#333;}#my-svg .edgeLabel[data-look="neo"]{background-color:rgba(232,232,232, 0.8);text-align:center;}#my-svg .edgeLabel[data-look="neo"] p{background-color:rgba(232,232,232, 0.8);}#my-svg .edgeLabel[data-look="neo"] rect{opacity:0.5;background-color:rgba(232,232,232, 0.8);fill:rgba(232,232,232, 0.8);}#my-svg .label-icon{display:inline-block;height:1em;overflow:visible;vertical-align:-0.125em;}#my-svg .node .label-icon path{fill:currentColor;stroke:revert;stroke-width:revert;}#my-svg .node .neo-node{stroke:#9370DB;}#my-svg [data-look="neo"].node rect,#my-svg [data-look="neo"].cluster rect,#my-svg [data-look="neo"].node polygon{stroke:#9370DB;filter:drop-shadow(1px 2px 2px rgba(185, 185, 185, 1));}#my-svg [data-look="neo"].node path{stroke:#9370DB;stroke-width:1px;}#my-svg [data-look="neo"].node .outer-path{filter:drop-shadow(1px 2px 2px rgba(185, 185, 185, 1));}#my-svg [data-look="neo"].node .neo-line path{stroke:#9370DB;filter:none;}#my-svg [data-look="neo"].node circle{stroke:#9370DB;filter:drop-shadow(1px 2px 2px rgba(185, 185, 185, 1));}#my-svg [data-look="neo"].node circle .state-start{fill:#000000;}#my-svg [data-look="neo"].icon-shape .icon{fill:#9370DB;filter:drop-shadow(1px 2px 2px rgba(185, 185, 185, 1));}#my-svg [data-look="neo"].icon-shape .icon-neo path{stroke:#9370DB;filter:drop-shadow(1px 2px 2px rgba(185, 185, 185, 1));}#my-svg :root{--mermaid-font-family:"trebuchet ms",verdana,arial,sans-serif;}</style><g><defs><marker id="my-svg_class-aggregationStart" class="marker aggregation class" refX="18" refY="7" markerWidth="190" markerHeight="240" orient="auto"><path d="M 18,7 L9,13 L1,7 L9,1 Z"/></marker></defs><defs><marker id="my-svg_class-aggregationEnd" class="marker aggregation class" refX="1" refY="7" markerWidth="20" markerHeight="28" orient="auto"><path d="M 18,7 L9,13 L1,7 L9,1 Z"/></marker></defs><defs><marker id="my-svg_class-aggregationStart-margin" class="marker aggregation class" refX="15" refY="7" markerWidth="190" markerHeight="240" orient="auto" markerUnits="userSpaceOnUse"><path d="M 18,7 L9,13 L1,7 L9,1 Z" style="stroke-width: 2;"/></marker></defs><defs><marker id="my-svg_class-aggregationEnd-margin" class="marker aggregation class" refX="1" refY="7" markerWidth="20" markerHeight="28" orient="auto" markerUnits="userSpaceOnUse"><path d="M 18,7 L9,13 L1,7 L9,1 Z" style="stroke-width: 2;"/></marker></defs><defs><marker id="my-svg_class-extensionStart" class="marker extension class" refX="18" refY="7" markerWidth="20" markerHeight="28" orient="auto" markerUnits="userSpaceOnUse"><path d="M 1,7 L18,13 V 1 Z"/></marker></defs><defs><marker id="my-svg_class-extensionEnd" class="marker extension class" refX="1" refY="7" markerWidth="20" markerHeight="28" orient="auto"><path d="M 1,1 V 13 L18,7 Z"/></marker></defs><marker id="my-svg_class-extensionStart-margin" class="marker extension class" refX="18" refY="7" markerWidth="20" markerHeight="28" orient="auto" markerUnits="userSpaceOnUse" viewBox="0 0 20 14"><polygon points="10,7 18,13 18,1" style="stroke-width: 2; stroke-dasharray: 0;"/></marker><defs><marker id="my-svg_class-extensionEnd-margin" class="marker extension class" refX="9" refY="7" markerWidth="20" markerHeight="28" orient="auto" markerUnits="userSpaceOnUse" viewBox="0 0 20 14"><polygon points="10,1 10,13 18,7" style="stroke-width: 2; stroke-dasharray: 0;"/></marker></defs><defs><marker id="my-svg_class-compositionStart" class="marker composition class" refX="18" refY="7" markerWidth="190" markerHeight="240" orient="auto"><path d="M 18,7 L9,13 L1,7 L9,1 Z"/></marker></defs><defs><marker id="my-svg_class-compositionEnd" class="marker composition class" refX="1" refY="7" markerWidth="20" markerHeight="28" orient="auto"><path d="M 18,7 L9,13 L1,7 L9,1 Z"/></marker></defs><defs><marker id="my-svg_class-compositionStart-margin" class="marker composition class" refX="15" refY="7" markerWidth="190" markerHeight="240" orient="auto" markerUnits="userSpaceOnUse"><path viewBox="0 0 15 15" d="M 18,7 L9,13 L1,7 L9,1 Z" style="stroke-width: 0;"/></marker></defs><defs><marker id="my-svg_class-compositionEnd-margin" class="marker composition class" refX="3.5" refY="7" markerWidth="20" markerHeight="28" orient="auto" markerUnits="userSpaceOnUse"><path d="M 18,7 L9,13 L1,7 L9,1 Z" style="stroke-width: 0;"/></marker></defs><defs><marker id="my-svg_class-dependencyStart" class="marker dependency class" refX="6" refY="7" markerWidth="190" markerHeight="240" orient="auto"><path d="M 5,7 L9,13 L1,7 L9,1 Z"/></marker></defs><defs><marker id="my-svg_class-dependencyEnd" class="marker dependency class" refX="13" refY="7" markerWidth="20" markerHeight="28" orient="auto"><path d="M 18,7 L9,13 L14,7 L9,1 Z"/></marker></defs><defs><marker id="my-svg_class-dependencyStart-margin" class="marker dependency class" refX="4" refY="7" markerWidth="190" markerHeight="240" orient="auto" markerUnits="userSpaceOnUse"><path d="M 5,7 L9,13 L1,7 L9,1 Z" style="stroke-width: 0;"/></marker></defs><defs><marker id="my-svg_class-dependencyEnd-margin" class="marker dependency class" refX="16" refY="7" markerWidth="20" markerHeight="28" orient="auto" markerUnits="userSpaceOnUse"><path d="M 18,7 L9,13 L14,7 L9,1 Z" style="stroke-width: 0;"/></marker></defs><defs><marker id="my-svg_class-lollipopStart" class="marker lollipop class" refX="13" refY="7" markerWidth="190" markerHeight="240" orient="auto"><circle fill="transparent" cx="7" cy="7" r="6"/></marker></defs><defs><marker id="my-svg_class-lollipopEnd" class="marker lollipop class" refX="1" refY="7" markerWidth="190" markerHeight="240" orient="auto"><circle fill="transparent" cx="7" cy="7" r="6"/></marker></defs><defs><marker id="my-svg_class-lollipopStart-margin" class="marker lollipop class" refX="13" refY="7" markerWidth="190" markerHeight="240" orient="auto" markerUnits="userSpaceOnUse"><circle fill="transparent" cx="7" cy="7" r="6" stroke-width="2"/></marker></defs><defs><marker id="my-svg_class-lollipopEnd-margin" class="marker lollipop class" refX="1" refY="7" markerWidth="190" markerHeight="240" orient="auto" markerUnits="userSpaceOnUse"><circle fill="transparent" cx="7" cy="7" r="6" stroke-width="2"/></marker></defs><g class="root"><g class="clusters"/><g class="edgePaths"><path d="M339.187,190.128L330.338,194.94C321.488,199.752,303.789,209.376,294.939,222.355C286.09,235.333,286.09,251.667,286.09,259.833L286.09,268" id="my-svg-id_ExternalDataLoader_AeroMapLoader_1" class="edge-thickness-normal edge-pattern-dashed relation" style=";;;" data-edge="true" data-et="edge" data-id="id_ExternalDataLoader_AeroMapLoader_1" data-points="W3sieCI6MzU0LjM0MTc5Njg3NSwieSI6MTgxLjg4NzgyODc3NTUxMTkzfSx7IngiOjI4Ni4wODk4NDM3NSwieSI6MjE5fSx7IngiOjI4Ni4wODk4NDM3NSwieSI6MjY4fV0=" data-look="classic" marker-start="url(#my-svg_class-extensionStart)"/><path d="M689.082,190.128L697.932,194.94C706.781,199.752,724.481,209.376,733.33,220.355C742.18,231.333,742.18,243.667,742.18,249.833L742.18,256" id="my-svg-id_ExternalDataLoader_TrackDataLoader_2" class="edge-thickness-normal edge-pattern-dashed relation" style=";;;" data-edge="true" data-et="edge" data-id="id_ExternalDataLoader_TrackDataLoader_2" data-points="W3sieCI6NjczLjkyNzczNDM3NSwieSI6MTgxLjg4NzgyODc3NTUxMTkzfSx7IngiOjc0Mi4xNzk2ODc1LCJ5IjoyMTl9LHsieCI6NzQyLjE3OTY4NzUsInkiOjI1Nn1d" data-look="classic" marker-start="url(#my-svg_class-extensionStart)"/><path d="M286.09,418L286.09,426.167C286.09,434.333,286.09,450.667,286.09,464C286.09,477.333,286.09,487.667,286.09,492.833L286.09,498" id="my-svg-id_AeroMapLoader_SimpleAero_3" class="edge-thickness-normal edge-pattern-solid relation" style=";;;" data-edge="true" data-et="edge" data-id="id_AeroMapLoader_SimpleAero_3" data-points="W3sieCI6Mjg2LjA4OTg0Mzc1LCJ5Ijo0MTh9LHsieCI6Mjg2LjA4OTg0Mzc1LCJ5Ijo0Njd9LHsieCI6Mjg2LjA4OTg0Mzc1LCJ5Ijo1MDR9XQ==" data-look="classic" marker-end="url(#my-svg_class-dependencyEnd)"/><path d="M742.18,430L742.18,436.167C742.18,442.333,742.18,454.667,742.18,466C742.18,477.333,742.18,487.667,742.18,492.833L742.18,498" id="my-svg-id_TrackDataLoader_TestTrack_4" class="edge-thickness-normal edge-pattern-solid relation" style=";;;" data-edge="true" data-et="edge" data-id="id_TrackDataLoader_TestTrack_4" data-points="W3sieCI6NzQyLjE3OTY4NzUsInkiOjQzMH0seyJ4Ijo3NDIuMTc5Njg3NSwieSI6NDY3fSx7IngiOjc0Mi4xNzk2ODc1LCJ5Ijo1MDR9XQ==" data-look="classic" marker-end="url(#my-svg_class-dependencyEnd)"/><path d="M1116.805,137L1116.805,150.667C1116.805,164.333,1116.805,191.667,1116.805,214.5C1116.805,237.333,1116.805,255.667,1116.805,264.833L1116.805,274" id="my-svg-id_VehicleManager_TelemetryExporter_5" class="edge-thickness-normal edge-pattern-solid relation" style=";;;" data-edge="true" data-et="edge" data-id="id_VehicleManager_TelemetryExporter_5" data-points="W3sieCI6MTExNi44MDQ2ODc1LCJ5IjoxMzd9LHsieCI6MTExNi44MDQ2ODc1LCJ5IjoyMTl9LHsieCI6MTExNi44MDQ2ODc1LCJ5IjoyODB9XQ==" data-look="classic" marker-end="url(#my-svg_class-dependencyEnd)"/></g><g class="edgeLabels"><g class="edgeLabel"><g class="label" data-id="id_ExternalDataLoader_AeroMapLoader_1" transform="translate(0, 0)"><foreignObject width="0" height="0"><div xmlns="http://www.w3.org/1999/xhtml" class="labelBkg" style="display: table-cell; white-space: nowrap; line-height: 1.5; max-width: 200px; text-align: center;"><span class="edgeLabel"></span></div></foreignObject></g></g><g class="edgeLabel"><g class="label" data-id="id_ExternalDataLoader_TrackDataLoader_2" transform="translate(0, 0)"><foreignObject width="0" height="0"><div xmlns="http://www.w3.org/1999/xhtml" class="labelBkg" style="display: table-cell; white-space: nowrap; line-height: 1.5; max-width: 200px; text-align: center;"><span class="edgeLabel"></span></div></foreignObject></g></g><g class="edgeLabel" transform="translate(286.08984375, 467)"><g class="label" data-id="id_AeroMapLoader_SimpleAero_3" transform="translate(-55.8671875, -12)"><foreignObject width="111.734375" height="24"><div xmlns="http://www.w3.org/1999/xhtml" class="labelBkg" style="display: table-cell; white-space: nowrap; line-height: 1.5; max-width: 200px; text-align: center;"><span class="edgeLabel"><p>populates maps</p></span></div></foreignObject></g></g><g class="edgeLabel" transform="translate(742.1796875, 467)"><g class="label" data-id="id_TrackDataLoader_TestTrack_4" transform="translate(-66.28125, -12)"><foreignObject width="132.5625" height="24"><div xmlns="http://www.w3.org/1999/xhtml" class="labelBkg" style="display: table-cell; white-space: nowrap; line-height: 1.5; max-width: 200px; text-align: center;"><span class="edgeLabel"><p>builds track points</p></span></div></foreignObject></g></g><g class="edgeLabel" transform="translate(1116.8046875, 219)"><g class="label" data-id="id_VehicleManager_TelemetryExporter_5" transform="translate(-71.171875, -12)"><foreignObject width="142.34375" height="24"><div xmlns="http://www.w3.org/1999/xhtml" class="labelBkg" style="display: table-cell; white-space: nowrap; line-height: 1.5; max-width: 200px; text-align: center;"><span class="edgeLabel"><p>sends final stateLog</p></span></div></foreignObject></g></g></g><g class="nodes"><g class="node default" id="my-svg-classId-ExternalDataLoader-0" data-look="classic" transform="translate(514.134765625, 95)"><g class="basic label-container outer-path"><path d="M-159.79296875 -87 L159.79296875 -87 L159.79296875 87 L-159.79296875 87" stroke="none" stroke-width="0" fill="#ECECFF" style=""/><path d="M-159.79296875 -87 C-70.84776639417973 -87, 18.097435961640542 -87, 159.79296875 -87 M-159.79296875 -87 C-85.30296028360229 -87, -10.812951817204578 -87, 159.79296875 -87 M159.79296875 -87 C159.79296875 -20.205603964828327, 159.79296875 46.588792070343345, 159.79296875 87 M159.79296875 -87 C159.79296875 -17.40383276691462, 159.79296875 52.19233446617076, 159.79296875 87 M159.79296875 87 C60.145454349324424 87, -39.50206005135115 87, -159.79296875 87 M159.79296875 87 C39.62610845050794 87, -80.54075184898412 87, -159.79296875 87 M-159.79296875 87 C-159.79296875 33.07087392814313, -159.79296875 -20.85825214371374, -159.79296875 -87 M-159.79296875 87 C-159.79296875 41.65923430709371, -159.79296875 -3.681531385812576, -159.79296875 -87" stroke="#9370DB" stroke-width="1.3" fill="none" stroke-dasharray="0 0" style=""/></g><g class="annotation-group text" transform="translate(-41.171875, -63)"><g class="label" style="" transform="translate(0,-12)"><foreignObject width="82.34375" height="24"><div xmlns="http://www.w3.org/1999/xhtml" style="display: table-cell; white-space: nowrap; line-height: 1.5; max-width: 122px; text-align: center;"><span class="nodeLabel markdown-node-label" style=""><p>«interface»</p></span></div></foreignObject></g></g><g class="label-group text" transform="translate(-74.2109375, -39)"><g class="label" style="font-weight: bolder" transform="translate(0,-12)"><foreignObject width="148.421875" height="24"><div xmlns="http://www.w3.org/1999/xhtml" style="display: table-cell; white-space: nowrap; line-height: 1.5; max-width: 181px; text-align: center;"><span class="nodeLabel markdown-node-label" style=""><p>ExternalDataLoader</p></span></div></foreignObject></g></g><g class="members-group text" transform="translate(-147.79296875, 9)"/><g class="methods-group text" transform="translate(-147.79296875, 39)"><g class="label" style="" transform="translate(0,-12)"><foreignObject width="221.375" height="24"><div xmlns="http://www.w3.org/1999/xhtml" style="display: table-cell; white-space: nowrap; line-height: 1.5; max-width: 260px; text-align: center;"><span class="nodeLabel markdown-node-label" style=""><p>+loadCSV(filepath) : double[][]</p></span></div></foreignObject></g><g class="label" style="" transform="translate(0,12)"><foreignObject width="200.96875" height="24"><div xmlns="http://www.w3.org/1999/xhtml" style="display: table-cell; white-space: nowrap; line-height: 1.5; max-width: 238px; text-align: center;"><span class="nodeLabel markdown-node-label" style=""><p>+loadJSON(filepath) : struct</p></span></div></foreignObject></g></g><g class="divider" style=""><path d="M-159.79296875 -15 C-75.93480167884246 -14.999737603701442, 7.923365392315077 -14.999475207402885, 159.79296875 -14.999 M-159.79296875 -15 C-87.81166673627193 -14.999774766992012, -15.830364722543862 -14.999549533984025, 159.79296875 -14.999" stroke="#9370DB" stroke-width="1.3" fill="none" stroke-dasharray="0 0" style=""/></g><g class="divider" style=""><path d="M-159.79296875 9 C-45.0138439960442 9.000359149484648, 69.7652807579116 9.000718298969296, 159.79296875 9.001 M-159.79296875 9 C-40.94822732097056 9.0003718709977, 77.89651410805888 9.0007437419954, 159.79296875 9.001" stroke="#9370DB" stroke-width="1.3" fill="none" stroke-dasharray="0 0" style=""/></g></g><g class="node default" id="my-svg-classId-AeroMapLoader-1" data-look="classic" transform="translate(286.08984375, 343)"><g class="basic label-container outer-path"><path d="M-278.08984375 -75 L278.08984375 -75 L278.08984375 75 L-278.08984375 75" stroke="none" stroke-width="0" fill="#ECECFF" style=""/><path d="M-278.08984375 -75 C-74.12525481172383 -75, 129.83933412655233 -75, 278.08984375 -75 M-278.08984375 -75 C-145.50872938309013 -75, -12.927615016180255 -75, 278.08984375 -75 M278.08984375 -75 C278.08984375 -31.593547559683557, 278.08984375 11.812904880632885, 278.08984375 75 M278.08984375 -75 C278.08984375 -42.08377260204531, 278.08984375 -9.167545204090615, 278.08984375 75 M278.08984375 75 C140.07208721300455 75, 2.0543306760091014 75, -278.08984375 75 M278.08984375 75 C56.475651451450005 75, -165.1385408471 75, -278.08984375 75 M-278.08984375 75 C-278.08984375 15.103387511427755, -278.08984375 -44.79322497714449, -278.08984375 -75 M-278.08984375 75 C-278.08984375 33.605298100881164, -278.08984375 -7.789403798237672, -278.08984375 -75" stroke="#9370DB" stroke-width="1.3" fill="none" stroke-dasharray="0 0" style=""/></g><g class="annotation-group text" transform="translate(0, -51)"/><g class="label-group text" transform="translate(-58.3671875, -51)"><g class="label" style="font-weight: bolder" transform="translate(0,-12)"><foreignObject width="116.734375" height="24"><div xmlns="http://www.w3.org/1999/xhtml" style="display: table-cell; white-space: nowrap; line-height: 1.5; max-width: 158px; text-align: center;"><span class="nodeLabel markdown-node-label" style=""><p>AeroMapLoader</p></span></div></foreignObject></g></g><g class="members-group text" transform="translate(-266.08984375, -3)"/><g class="methods-group text" transform="translate(-266.08984375, 27)"><g class="label" style="" transform="translate(0,-12)"><foreignObject width="234.234375" height="24"><div xmlns="http://www.w3.org/1999/xhtml" style="display: table-cell; white-space: nowrap; line-height: 1.5; max-width: 268px; text-align: center;"><span class="nodeLabel markdown-node-label" style=""><p>+parseAeroCoefficients(filepath)</p></span></div></foreignObject></g><g class="label" style="" transform="translate(0,12)"><foreignObject width="473.8125" height="24"><div xmlns="http://www.w3.org/1999/xhtml" style="display: table-cell; white-space: nowrap; line-height: 1.5; max-width: 483px; text-align: center;"><span class="nodeLabel markdown-node-label" style=""><p>+interpolateDownforce(frontRideHeight, rearRideHeight) : double</p></span></div></foreignObject></g></g><g class="divider" style=""><path d="M-278.08984375 -27 C-65.53805184231425 -26.99961783611181, 147.0137400653715 -26.999235672223616, 278.08984375 -26.999 M-278.08984375 -27 C-144.91143879800836 -26.999760547880577, -11.733033846016724 -26.999521095761153, 278.08984375 -26.999" stroke="#9370DB" stroke-width="1.3" fill="none" stroke-dasharray="0 0" style=""/></g><g class="divider" style=""><path d="M-278.08984375 -3 C-124.27684102615643 -2.9997234472847882, 29.536161697687135 -2.999446894569576, 278.08984375 -2.999 M-278.08984375 -3 C-118.50297109497919 -2.9997130659816573, 41.083901560041625 -2.9994261319633146, 278.08984375 -2.999" stroke="#9370DB" stroke-width="1.3" fill="none" stroke-dasharray="0 0" style=""/></g></g><g class="node default" id="my-svg-classId-TrackDataLoader-2" data-look="classic" transform="translate(742.1796875, 343)"><g class="basic label-container outer-path"><path d="M-128 -87 L128 -87 L128 87 L-128 87" stroke="none" stroke-width="0" fill="#ECECFF" style=""/><path d="M-128 -87 C-46.95276938540931 -87, 34.09446122918138 -87, 128 -87 M-128 -87 C-63.006219220648234 -87, 1.9875615587035327 -87, 128 -87 M128 -87 C128 -21.409280437907157, 128 44.18143912418569, 128 87 M128 -87 C128 -26.333515976189616, 128 34.33296804762077, 128 87 M128 87 C63.65009352748841 87, -0.6998129450231829 87, -128 87 M128 87 C48.66914717846471 87, -30.661705643070576 87, -128 87 M-128 87 C-128 41.50044222410997, -128 -3.999115551780065, -128 -87 M-128 87 C-128 43.3340435495444, -128 -0.33191290091120607, -128 -87" stroke="#9370DB" stroke-width="1.3" fill="none" stroke-dasharray="0 0" style=""/></g><g class="annotation-group text" transform="translate(0, -63)"/><g class="label-group text" transform="translate(-62.6875, -63)"><g class="label" style="font-weight: bolder" transform="translate(0,-12)"><foreignObject width="125.375" height="24"><div xmlns="http://www.w3.org/1999/xhtml" style="display: table-cell; white-space: nowrap; line-height: 1.5; max-width: 163px; text-align: center;"><span class="nodeLabel markdown-node-label" style=""><p>TrackDataLoader</p></span></div></foreignObject></g></g><g class="members-group text" transform="translate(-116, -15)"/><g class="methods-group text" transform="translate(-116, 15)"><g class="label" style="" transform="translate(0,-12)"><foreignObject width="169.3125" height="24"><div xmlns="http://www.w3.org/1999/xhtml" style="display: table-cell; white-space: nowrap; line-height: 1.5; max-width: 218px; text-align: center;"><span class="nodeLabel markdown-node-label" style=""><p>+parseGPSCSV(filepath)</p></span></div></foreignObject></g><g class="label" style="" transform="translate(0,12)"><foreignObject width="142.96875" height="24"><div xmlns="http://www.w3.org/1999/xhtml" style="display: table-cell; white-space: nowrap; line-height: 1.5; max-width: 186px; text-align: center;"><span class="nodeLabel markdown-node-label" style=""><p>+smoothCurvature()</p></span></div></foreignObject></g><g class="label" style="" transform="translate(0,36)"><foreignObject width="161.171875" height="24"><div xmlns="http://www.w3.org/1999/xhtml" style="display: table-cell; white-space: nowrap; line-height: 1.5; max-width: 204px; text-align: center;"><span class="nodeLabel markdown-node-label" style=""><p>+generateRacingLine()</p></span></div></foreignObject></g></g><g class="divider" style=""><path d="M-128 -39 C-28.893616624733014 -38.99961286568994, 70.21276675053397 -38.99922573137988, 128 -38.999 M-128 -39 C-41.532902044219924 -38.99966223789861, 44.93419591156015 -38.99932447579722, 128 -38.999" stroke="#9370DB" stroke-width="1.3" fill="none" stroke-dasharray="0 0" style=""/></g><g class="divider" style=""><path d="M-128 -15 C-38.60672559708328 -14.999650807521864, 50.786548805833434 -14.999301615043727, 128 -14.999 M-128 -15 C-68.47524350024308 -14.999767481419923, -8.950487000486163 -14.999534962839846, 128 -14.999" stroke="#9370DB" stroke-width="1.3" fill="none" stroke-dasharray="0 0" style=""/></g></g><g class="node default" id="my-svg-classId-TelemetryExporter-3" data-look="classic" transform="translate(1116.8046875, 343)"><g class="basic label-container outer-path"><path d="M-196.625 -63 L196.625 -63 L196.625 63 L-196.625 63" stroke="none" stroke-width="0" fill="#ECECFF" style=""/><path d="M-196.625 -63 C-79.22077022310887 -63, 38.18345955378226 -63, 196.625 -63 M-196.625 -63 C-103.95861653990043 -63, -11.292233079800866 -63, 196.625 -63 M196.625 -63 C196.625 -21.28592154918669, 196.625 20.428156901626622, 196.625 63 M196.625 -63 C196.625 -33.05591424513126, 196.625 -3.111828490262532, 196.625 63 M196.625 63 C111.44706531622785 63, 26.2691306324557 63, -196.625 63 M196.625 63 C108.28577350733617 63, 19.946547014672348 63, -196.625 63 M-196.625 63 C-196.625 13.987552664283498, -196.625 -35.024894671433, -196.625 -63 M-196.625 63 C-196.625 15.330021357330928, -196.625 -32.339957285338144, -196.625 -63" stroke="#9370DB" stroke-width="1.3" fill="none" stroke-dasharray="0 0" style=""/></g><g class="annotation-group text" transform="translate(0, -39)"/><g class="label-group text" transform="translate(-70.65625, -39)"><g class="label" style="font-weight: bolder" transform="translate(0,-12)"><foreignObject width="141.3125" height="24"><div xmlns="http://www.w3.org/1999/xhtml" style="display: table-cell; white-space: nowrap; line-height: 1.5; max-width: 171px; text-align: center;"><span class="nodeLabel markdown-node-label" style=""><p>TelemetryExporter</p></span></div></foreignObject></g></g><g class="members-group text" transform="translate(-184.625, 9)"/><g class="methods-group text" transform="translate(-184.625, 39)"><g class="label" style="" transform="translate(0,-12)"><foreignObject width="298.59375" height="24"><div xmlns="http://www.w3.org/1999/xhtml" style="display: table-cell; white-space: nowrap; line-height: 1.5; max-width: 332px; text-align: center;"><span class="nodeLabel markdown-node-label" style=""><p>+writeToMoTeCFormat(stateLog, filepath)</p></span></div></foreignObject></g></g><g class="divider" style=""><path d="M-196.625 -15 C-48.67069226158068 -14.999623765269579, 99.28361547683863 -14.999247530539156, 196.625 -14.999 M-196.625 -15 C-70.18692365734677 -14.99967847914471, 56.251152685306465 -14.999356958289422, 196.625 -14.999" stroke="#9370DB" stroke-width="1.3" fill="none" stroke-dasharray="0 0" style=""/></g><g class="divider" style=""><path d="M-196.625 9 C-59.010421598763 9.0003499417124, 78.604156802474 9.000699883424799, 196.625 9.001 M-196.625 9 C-39.724529062467724 9.000398984032898, 117.17594187506455 9.000797968065797, 196.625 9.001" stroke="#9370DB" stroke-width="1.3" fill="none" stroke-dasharray="0 0" style=""/></g></g><g class="node default" id="my-svg-classId-SimpleAero-4" data-look="classic" transform="translate(286.08984375, 546)"><g class="basic label-container outer-path"><path d="M-54.578125 -42 L54.578125 -42 L54.578125 42 L-54.578125 42" stroke="none" stroke-width="0" fill="#ECECFF" style=""/><path d="M-54.578125 -42 C-15.900279698293765 -42, 22.77756560341247 -42, 54.578125 -42 M-54.578125 -42 C-31.11912488770406 -42, -7.660124775408121 -42, 54.578125 -42 M54.578125 -42 C54.578125 -11.88518771519039, 54.578125 18.22962456961922, 54.578125 42 M54.578125 -42 C54.578125 -14.574737715785208, 54.578125 12.850524568429584, 54.578125 42 M54.578125 42 C25.406965765926685 42, -3.7641934681466296 42, -54.578125 42 M54.578125 42 C15.740531009351336 42, -23.097062981297327 42, -54.578125 42 M-54.578125 42 C-54.578125 24.05041040637034, -54.578125 6.100820812740679, -54.578125 -42 M-54.578125 42 C-54.578125 13.77623936743758, -54.578125 -14.447521265124841, -54.578125 -42" stroke="#9370DB" stroke-width="1.3" fill="none" stroke-dasharray="0 0" style=""/></g><g class="annotation-group text" transform="translate(0, -18)"/><g class="label-group text" transform="translate(-42.578125, -18)"><g class="label" style="font-weight: bolder" transform="translate(0,-12)"><foreignObject width="85.15625" height="24"><div xmlns="http://www.w3.org/1999/xhtml" style="display: table-cell; white-space: nowrap; line-height: 1.5; max-width: 127px; text-align: center;"><span class="nodeLabel markdown-node-label" style=""><p>SimpleAero</p></span></div></foreignObject></g></g><g class="members-group text" transform="translate(-42.578125, 30)"/><g class="methods-group text" transform="translate(-42.578125, 60)"/><g class="divider" style=""><path d="M-54.578125 6 C-28.261260954777224 6.000241093515444, -1.9443969095544489 6.000482187030888, 54.578125 6.001 M-54.578125 6 C-28.385978819145794 6.000239950952702, -2.193832638291589 6.000479901905404, 54.578125 6.001" stroke="#9370DB" stroke-width="1.3" fill="none" stroke-dasharray="0 0" style=""/></g><g class="divider" style=""><path d="M-54.578125 24 C-29.941132313222116 24.00022570391239, -5.304139626444233 24.00045140782478, 54.578125 24.001 M-54.578125 24 C-29.823900495963322 24.00022677789411, -5.069675991926644 24.000453555788223, 54.578125 24.001" stroke="#9370DB" stroke-width="1.3" fill="none" stroke-dasharray="0 0" style=""/></g></g><g class="node default" id="my-svg-classId-TestTrack-5" data-look="classic" transform="translate(742.1796875, 546)"><g class="basic label-container outer-path"><path d="M-47.203125 -42 L47.203125 -42 L47.203125 42 L-47.203125 42" stroke="none" stroke-width="0" fill="#ECECFF" style=""/><path d="M-47.203125 -42 C-13.231490405814917 -42, 20.740144188370166 -42, 47.203125 -42 M-47.203125 -42 C-25.244168078462792 -42, -3.285211156925584 -42, 47.203125 -42 M47.203125 -42 C47.203125 -14.278115890561825, 47.203125 13.44376821887635, 47.203125 42 M47.203125 -42 C47.203125 -23.77220704560426, 47.203125 -5.544414091208523, 47.203125 42 M47.203125 42 C16.05833765316559 42, -15.086449693668818 42, -47.203125 42 M47.203125 42 C16.35608961413067 42, -14.490945771738659 42, -47.203125 42 M-47.203125 42 C-47.203125 23.904795877116033, -47.203125 5.809591754232066, -47.203125 -42 M-47.203125 42 C-47.203125 25.102491321194982, -47.203125 8.204982642389965, -47.203125 -42" stroke="#9370DB" stroke-width="1.3" fill="none" stroke-dasharray="0 0" style=""/></g><g class="annotation-group text" transform="translate(0, -18)"/><g class="label-group text" transform="translate(-35.203125, -18)"><g class="label" style="font-weight: bolder" transform="translate(0,-12)"><foreignObject width="70.40625" height="24"><div xmlns="http://www.w3.org/1999/xhtml" style="display: table-cell; white-space: nowrap; line-height: 1.5; max-width: 114px; text-align: center;"><span class="nodeLabel markdown-node-label" style=""><p>TestTrack</p></span></div></foreignObject></g></g><g class="members-group text" transform="translate(-35.203125, 30)"/><g class="methods-group text" transform="translate(-35.203125, 60)"/><g class="divider" style=""><path d="M-47.203125 6 C-21.86679687075233 6.000268375537947, 3.469531258495337 6.0005367510758925, 47.203125 6.001 M-47.203125 6 C-15.087466498881163 6.000340185723944, 17.028192002237674 6.0006803714478885, 47.203125 6.001" stroke="#9370DB" stroke-width="1.3" fill="none" stroke-dasharray="0 0" style=""/></g><g class="divider" style=""><path d="M-47.203125 24 C-20.157725206684304 24.000286478912077, 6.887674586631391 24.000572957824154, 47.203125 24.001 M-47.203125 24 C-17.90205718667744 24.000310372118513, 11.399010626645122 24.000620744237025, 47.203125 24.001" stroke="#9370DB" stroke-width="1.3" fill="none" stroke-dasharray="0 0" style=""/></g></g><g class="node default" id="my-svg-classId-VehicleManager-6" data-look="classic" transform="translate(1116.8046875, 95)"><g class="basic label-container outer-path"><path d="M-70.546875 -42 L70.546875 -42 L70.546875 42 L-70.546875 42" stroke="none" stroke-width="0" fill="#ECECFF" style=""/><path d="M-70.546875 -42 C-22.999287528578513 -42, 24.548299942842974 -42, 70.546875 -42 M-70.546875 -42 C-41.77355045798156 -42, -13.000225915963107 -42, 70.546875 -42 M70.546875 -42 C70.546875 -8.508282175089747, 70.546875 24.983435649820507, 70.546875 42 M70.546875 -42 C70.546875 -21.481517116438667, 70.546875 -0.9630342328773338, 70.546875 42 M70.546875 42 C38.254709487581614 42, 5.9625439751632285 42, -70.546875 42 M70.546875 42 C31.16329059472404 42, -8.220293810551922 42, -70.546875 42 M-70.546875 42 C-70.546875 11.757131534949067, -70.546875 -18.485736930101865, -70.546875 -42 M-70.546875 42 C-70.546875 19.638025670451693, -70.546875 -2.7239486590966138, -70.546875 -42" stroke="#9370DB" stroke-width="1.3" fill="none" stroke-dasharray="0 0" style=""/></g><g class="annotation-group text" transform="translate(0, -18)"/><g class="label-group text" transform="translate(-58.546875, -18)"><g class="label" style="font-weight: bolder" transform="translate(0,-12)"><foreignObject width="117.09375" height="24"><div xmlns="http://www.w3.org/1999/xhtml" style="display: table-cell; white-space: nowrap; line-height: 1.5; max-width: 157px; text-align: center;"><span class="nodeLabel markdown-node-label" style=""><p>VehicleManager</p></span></div></foreignObject></g></g><g class="members-group text" transform="translate(-58.546875, 30)"/><g class="methods-group text" transform="translate(-58.546875, 60)"/><g class="divider" style=""><path d="M-70.546875 6 C-22.774861706045506 6.000338583482925, 24.997151587908988 6.0006771669658505, 70.546875 6.001 M-70.546875 6 C-30.906564337078443 6.000280950153093, 8.733746325843114 6.000561900306185, 70.546875 6.001" stroke="#9370DB" stroke-width="1.3" fill="none" stroke-dasharray="0 0" style=""/></g><g class="divider" style=""><path d="M-70.546875 24 C-29.92036783687834 24.000287939807137, 10.706139326243317 24.000575879614274, 70.546875 24.001 M-70.546875 24 C-17.848754853353427 24.000373497197053, 34.84936529329315 24.000746994394106, 70.546875 24.001" stroke="#9370DB" stroke-width="1.3" fill="none" stroke-dasharray="0 0" style=""/></g></g></g></g></g><defs><filter id="my-svg-drop-shadow" height="130%" width="130%"><feDropShadow dx="4" dy="4" stdDeviation="0" flood-opacity="0.06" flood-color="#000000"/></filter></defs><defs><filter id="my-svg-drop-shadow-small" height="150%" width="150%"><feDropShadow dx="2" dy="2" stdDeviation="0" flood-opacity="0.06" flood-color="#000000"/></filter></defs></svg>